<?xml version="1.0" encoding="utf-8"?>
<!-- Generator: Adobe Illustrator 18.0.0, SVG Export Plug-In . SVG Version: 6.00 Build 0)  -->
<!DOCTYPE svg PUBLIC "-//W3C//DTD SVG 1.1//EN" "http://www.w3.org/Graphics/SVG/1.1/DTD/svg11.dtd">
<svg version="1.1" id="Camada_1" xmlns="http://www.w3.org/2000/svg" xmlns:xlink="http://www.w3.org/1999/xlink" x="0px" y="0px"
	 viewBox="0 0 672 421" enable-background="new 0 0 672 421" xml:space="preserve">
<g transform="translate(0.000000,421.000000) scale(0.100000,-0.100000)">
	<path fill="#FCA311" stroke="#14213D" stroke-miterlimit="10" d="M5723,3775c-162-44-376-194-646-454c-106-101-1059-931-1070-931
		c-3,0,7,30,20,68c39,108,63,221,63,303c0,65-4,85-28,130c-30,58-80,99-120,99c-97,0-373-251-720-655c-118-137-226-261-239-275
		c-14-15,12,45,65,151c101,201,171,355,216,479c27,76,31,97,31,195c0,125-13,168-57,191c-60,31-120-2-332-186
		c-77-66-141-119-143-117s22,51,53,108c113,207,194,410,194,485c0,124-104,173-233,110c-37-18-91-61-160-129c-57-57-175-161-262-232
		c-87-72-210-174-274-228c-278-234-320-269-396-326c-91-69-321-194-440-239c-106-40-235-66-299-59c-72,7-153,40-240,97
		c-176,115-336,313-336,415c0,13-7,29-16,36c-14,11-18,10-31-6c-11-15-14-41-11-100c3-64,9-93,34-145c67-141,233-308,374-374
		c57-26,77-30,177-34c140-6,249,10,380,53c151,50,264,112,393,214c152,121,914,764,1081,912c80,71,114,93,129,84
		c69-42-247-668-486-962c-48-60-295-468-373-616c-28-53-51-107-51-118c0-33,53-79,92-79c39,1,29-12,201,254c172,268,218,329,448,611
		c260,318,283,345,327,377c85,63,132,72,132,28c0-38-47-163-135-361c-167-376-225-535-225-621c0-32,7-47,34-74c39-39,61-42,115-14
		c44,22,73,54,200,225c149,200,297,372,460,536c143,143,263,239,297,239c36,0-1-260-77-542c-8-32-89-114-522-525
		c-281-269-652-622-824-786l-313-298l16-30c21-42,73-63,122-49c55,15,114,67,285,250c200,214,1196,1165,1221,1165c6,0,14-25,18-55
		c22-165,45-210,108-210c124,0,432,349,584,662l52,107l2-96c4-264,107-553,198-553c37,0,53,10,83,54c38,54,71,137,105,261
		c59,215,108,341,156,402c16,21,17,16,29-140c23-302,76-550,151-702c70-144,134-195,242-195c46,0,72,8,158,50
		c133,66,239,139,278,194c84,116,266,581,344,878c31,118,33,131,32,308c0,155-3,199-21,270c-24,93-77,225-117,288
		C6108,3736,5910,3825,5723,3775z M5955,3621c67-29,157-120,194-195c96-196,89-492-20-866c-17-58-42-145-56-195
		c-28-104-106-301-165-419c-71-141-216-270-330-291c-53-10-109,10-150,52c-83,87-105,179-123,523c-21,377-30,446-62,493
		c-15,22-37,43-49,47c-24,9-90-4-112-23c-22-17-137-254-233-475l-87-203l-6,138c-17,392-26,486-46,521c-11,18-17,39-13,45
		c23,35,601,592,673,648C5637,3629,5807,3687,5955,3621z M4459,2558c-22-41-171-271-283-438c-120-179-179-250-206-250s-40,51-40,156
		v94l268,229c147,127,268,230,270,230C4469,2580,4465,2570,4459,2558z"/>
	<path fill="#FCA311" stroke="#14213D" stroke-miterlimit="10" d="M1780,503c-37-7-48-19-65-78c-19-67-19-95,1-144
		c15-39,51-63,122-86c33-10,85,2,112,25c50,44,46,168-9,229c-23,26-109,65-131,60C1807,508,1794,505,1780,503z"/>
</g>
</svg>
