<?xml version="1.0" encoding="utf-8"?>
<!-- Generator: Adobe Illustrator 18.0.0, SVG Export Plug-In . SVG Version: 6.00 Build 0)  -->
<!DOCTYPE svg PUBLIC "-//W3C//DTD SVG 1.1//EN" "http://www.w3.org/Graphics/SVG/1.1/DTD/svg11.dtd">
<svg version="1.1" id="Camada_1" xmlns="http://www.w3.org/2000/svg" xmlns:xlink="http://www.w3.org/1999/xlink" x="0px" y="0px"
	 viewBox="0 0 39.7 90.8" enable-background="new 0 0 39.7 90.8" xml:space="preserve">
<rect x="10.1" y="0" fill="#DB9830" width="19.7" height="27.6"/>
<g>
	<path fill="#D29235" d="M24.6,57.1v0.7c0,0.8,0.1,1.2,0.3,1.2s0.7-0.6,1.6-1.9c0.9-1.3,2-3.1,2.2-3.4c0-0.1,0.1-0.2,0.1-0.2
		c0,0-1,0.8-2.1,1.8L24.6,57.1z"/>
	<path fill="#DB9830" d="M0.2,31.6v24.1v1.2v14.2C0.2,82,9,90.8,20,90.8c10.9,0,19.7-8.8,19.7-19.7V60.4v-1.5V45.3v-1.1V31.6H0.2z"
		/>
	<path fill="#0A1E3A" d="M37.4,60.8c-0.4,0.1-0.8-0.1-1.2-0.4c-0.6-0.7-0.8-1.4-1-4.1c-0.2-2.9-0.2-3.5-0.5-3.8
		c-0.1-0.2-0.3-0.3-0.4-0.4c-0.2-0.1-0.7,0-0.9,0.2c-0.2,0.1-1.1,2-1.8,3.7L31,57.5l0-1.1c-0.1-3.1-0.2-3.8-0.4-4.1
		c-0.1-0.1-0.1-0.3-0.1-0.4c0.2-0.3,4.7-4.6,5.2-5c1.7-1.3,2.9-1.8,3.9-1.7v-1.1c-0.4,0-0.8,0-1.2,0.1c-1.3,0.3-2.9,1.5-5,3.5
		c-0.8,0.8-8.2,7.2-8.3,7.2c0,0,0.1-0.2,0.2-0.5c0.3-0.8,0.5-1.7,0.5-2.4c0-0.5,0-0.7-0.2-1c-0.2-0.5-0.6-0.8-0.9-0.8
		c-0.8,0-2.9,2-5.6,5.1c-0.9,1.1-1.8,2-1.9,2.1c-0.1,0.1,0.1-0.4,0.5-1.2c0.8-1.6,1.3-2.8,1.7-3.7c0.2-0.6,0.2-0.8,0.2-1.5
		c0-1-0.1-1.3-0.4-1.5c-0.5-0.2-0.9,0-2.6,1.4c-0.6,0.5-1.1,0.9-1.1,0.9c0,0,0.2-0.4,0.4-0.8c0.9-1.6,1.5-3.2,1.5-3.8
		c0-1-0.8-1.3-1.8-0.9c-0.3,0.1-0.7,0.5-1.2,1c-0.4,0.4-1.4,1.3-2,1.8c-0.7,0.6-1.6,1.4-2.1,1.8C8,53,7.7,53.3,7.1,53.7
		c-0.7,0.5-2.5,1.5-3.4,1.9c-0.8,0.3-1.8,0.5-2.3,0.5c-0.3,0-0.7-0.2-1.1-0.4v1.2c0.2,0,0.4,0,0.7,0.1c1.1,0,1.9-0.1,3-0.4
		C5.1,56.1,6,55.6,7,54.8c1.2-0.9,7.1-5.9,8.4-7.1c0.6-0.6,0.9-0.7,1-0.7c0.5,0.3-1.9,5.2-3.8,7.5c-0.4,0.5-2.3,3.6-2.9,4.8
		c-0.2,0.4-0.4,0.8-0.4,0.9c0,0.3,0.4,0.6,0.7,0.6c0.3,0,0.2,0.1,1.6-2c1.3-2.1,1.7-2.6,3.5-4.8c2-2.5,2.2-2.7,2.5-2.9
		c0.7-0.5,1-0.6,1-0.2c0,0.3-0.4,1.3-1.1,2.8c-1.3,2.9-1.8,4.2-1.8,4.8c0,0.2,0.1,0.4,0.3,0.6c0.3,0.3,0.5,0.3,0.9,0.1
		c0.3-0.2,0.6-0.4,1.6-1.8c1.2-1.6,2.3-2.9,3.6-4.2c1.1-1.1,2-1.9,2.3-1.9c0.3,0,0,2-0.6,4.2c-0.1,0.2-0.7,0.9-4.1,4.1
		c-2.2,2.1-5.1,4.8-6.4,6.1l-2.4,2.3l0.1,0.2c0.2,0.3,0.6,0.5,0.9,0.4c0.4-0.1,0.9-0.5,2.2-1.9c1.6-1.7,9.3-9.1,9.5-9.1
		c0,0,0.1,0.2,0.1,0.4c0.2,1.3,0.4,1.6,0.8,1.6c1,0,3.4-2.7,4.5-5.2l0.4-0.8l0,0.7c0,2.1,0.8,4.3,1.5,4.3c0.3,0,0.4-0.1,0.6-0.4
		c0.3-0.4,0.6-1.1,0.8-2c0.5-1.7,0.8-2.7,1.2-3.1c0.1-0.2,0.1-0.1,0.2,1.1c0.2,2.4,0.6,4.3,1.2,5.5c0.5,1.1,1,1.5,1.9,1.5
		c0.4,0,0.6-0.1,1.2-0.4c0.5-0.2,0.9-0.5,1.3-0.7v-1.5C39.1,59.8,38.2,60.6,37.4,60.8z M28.7,53.7c-0.2,0.3-1.3,2.1-2.2,3.4
		c-0.9,1.4-1.4,1.9-1.6,1.9c-0.2,0-0.3-0.4-0.3-1.2v-0.7l2.1-1.8c1.1-1,2.1-1.8,2.1-1.8C28.8,53.6,28.7,53.6,28.7,53.7z"/>
	<path fill="#0A1E3A" d="M8.1,69.7c0,0-0.1,0-0.2,0c-0.3,0.1-0.4,0.1-0.5,0.6c-0.1,0.5-0.1,0.7,0,1.1c0.1,0.3,0.4,0.5,0.9,0.7
		c0.3,0.1,0.7,0,0.9-0.2c0.4-0.3,0.4-1.3-0.1-1.8C8.9,69.9,8.2,69.6,8.1,69.7z"/>
</g>
<polygon fill="#B07426" points="0.2,31.6 10.1,27.6 29.8,27.6 39.7,31.6 "/>
</svg>
