<?xml version="1.0" standalone="no"?>
<!DOCTYPE svg PUBLIC "-//W3C//DTD SVG 20010904//EN"
 "http://www.w3.org/TR/2001/REC-SVG-20010904/DTD/svg10.dtd">
<svg version="1.0" xmlns="http://www.w3.org/2000/svg"
 width="672.000000pt" height="421.000000pt" viewBox="0 0 672.000000 421.000000"
 preserveAspectRatio="xMidYMid meet">

<g transform="translate(0.000000,421.000000) scale(0.100000,-0.100000)"
fill="#fca311" stroke="none">
<path d="M5723 3775 c-162 -44 -376 -194 -646 -454 -106 -101 -1059 -931
-1070 -931 -3 0 7 30 20 68 39 108 63 221 63 303 0 65 -4 85 -28 130 -30 58
-80 99 -120 99 -97 0 -373 -251 -720 -655 -118 -137 -226 -261 -239 -275 -14
-15 12 45 65 151 101 201 171 355 216 479 27 76 31 97 31 195 0 125 -13 168
-57 191 -60 31 -120 -2 -332 -186 -77 -66 -141 -119 -143 -117 -2 2 22 51 53
108 113 207 194 410 194 485 0 124 -104 173 -233 110 -37 -18 -91 -61 -160
-129 -57 -57 -175 -161 -262 -232 -87 -72 -210 -174 -274 -228 -278 -234 -320
-269 -396 -326 -91 -69 -321 -194 -440 -239 -106 -40 -235 -66 -299 -59 -72 7
-153 40 -240 97 -176 115 -336 313 -336 415 0 13 -7 29 -16 36 -14 11 -18 10
-31 -6 -11 -15 -14 -41 -11 -100 3 -64 9 -93 34 -145 67 -141 233 -308 374
-374 57 -26 77 -30 177 -34 140 -6 249 10 380 53 151 50 264 112 393 214 152
121 914 764 1081 912 80 71 114 93 129 84 69 -42 -247 -668 -486 -962 -48 -60
-295 -468 -373 -616 -28 -53 -51 -107 -51 -118 0 -33 53 -79 92 -79 39 1 29
-12 201 254 172 268 218 329 448 611 260 318 283 345 327 377 85 63 132 72
132 28 0 -38 -47 -163 -135 -361 -167 -376 -225 -535 -225 -621 0 -32 7 -47
34 -74 39 -39 61 -42 115 -14 44 22 73 54 200 225 149 200 297 372 460 536
143 143 263 239 297 239 36 0 -1 -260 -77 -542 -8 -32 -89 -114 -522 -525
-281 -269 -652 -622 -824 -786 l-313 -298 16 -30 c21 -42 73 -63 122 -49 55
15 114 67 285 250 200 214 1196 1165 1221 1165 6 0 14 -25 18 -55 22 -165 45
-210 108 -210 124 0 432 349 584 662 l52 107 2 -96 c4 -264 107 -553 198 -553
37 0 53 10 83 54 38 54 71 137 105 261 59 215 108 341 156 402 16 21 17 16 29
-140 23 -302 76 -550 151 -702 70 -144 134 -195 242 -195 46 0 72 8 158 50
133 66 239 139 278 194 84 116 266 581 344 878 31 118 33 131 32 308 0 155 -3
199 -21 270 -24 93 -77 225 -117 288 -118 188 -316 277 -503 227z m232 -154
c67 -29 157 -120 194 -195 96 -196 89 -492 -20 -866 -17 -58 -42 -145 -56
-195 -28 -104 -106 -301 -165 -419 -71 -141 -216 -270 -330 -291 -53 -10 -109
10 -150 52 -83 87 -105 179 -123 523 -21 377 -30 446 -62 493 -15 22 -37 43
-49 47 -24 9 -90 -4 -112 -23 -22 -17 -137 -254 -233 -475 l-87 -203 -6 138
c-17 392 -26 486 -46 521 -11 18 -17 39 -13 45 23 35 601 592 673 648 267 208
437 266 585 200z m-1496 -1063 c-22 -41 -171 -271 -283 -438 -120 -179 -179
-250 -206 -250 -27 0 -40 51 -40 156 l0 94 268 229 c147 127 268 230 270 230
1 1 -3 -9 -9 -21z"/>
<path d="M1780 503 c-37 -7 -48 -19 -65 -78 -19 -67 -19 -95 1 -144 15 -39 51
-63 122 -86 33 -10 85 2 112 25 50 44 46 168 -9 229 -23 26 -109 65 -131 60
-3 -1 -16 -4 -30 -6z"/>
</g>
</svg>
